; NON-PLATED HOLES START AT T1
; THROUGH (PLATED) HOLES START AT T100
M48
INCH
T100C0.038028
T101C0.038035
T102C0.035000
T103C0.031250
T104C0.037396
T105C0.038007
T106C0.038000
T107C0.042000
%
T100
X023659Y016949
T101
X005059Y019949
X011660Y019949
X016660Y019949
X022660Y019949
X014660Y019949
X008060Y019949
X025660Y019949
X026660Y019949
X015660Y019949
X023660Y019949
X017660Y019949
X004060Y019949
X027660Y019949
X003060Y019949
X020660Y019949
X018660Y019949
X009060Y019949
X007060Y019949
X012660Y019949
X021660Y019949
X010060Y019949
X013660Y019949
X006060Y019949
X024659Y019949
T102
X008660Y006949
X007660Y009949
X006660Y016949
X004660Y010949
X004660Y011949
X007660Y010949
X007660Y008949
X013660Y013949
X003660Y010949
X021660Y013949
X011660Y009949
X003660Y014949
X017660Y013949
X013660Y009949
X007660Y011949
X008660Y010949
X011660Y013949
X004660Y008949
X004660Y009949
X002660Y016949
T103
X023660Y007949
X023660Y002949
X023660Y003949
X023659Y006949
X023660Y004949
X023660Y005949
T104
X031660Y012949
X030660Y019949
X030660Y008949
X030660Y013949
X030660Y003949
X030660Y007949
X031660Y015949
X031660Y005949
X030660Y009949
X031660Y019949
X031660Y004949
X031660Y017949
X030660Y015949
X030660Y011949
X030660Y006949
X031660Y003949
X030660Y014949
X030660Y017949
X030660Y010949
X030660Y016949
X031660Y010949
X030660Y005949
X031660Y011949
X031660Y018949
X031660Y013949
X031660Y016949
X031660Y002949
X030660Y002949
X031660Y008949
X031660Y007949
X030660Y018949
X031660Y009949
X031660Y006949
X031660Y014949
X030660Y012949
X030660Y004949
T105
X008660Y000949
X006660Y000949
X020660Y000949
X015660Y000949
X017660Y000949
X011660Y000949
X019659Y000949
X013660Y000949
X004660Y000949
X023660Y000949
X025660Y000949
X018660Y000949
X028660Y000949
X026660Y000949
X005660Y000949
X014660Y000949
X009660Y000949
X010660Y000949
X029659Y000949
X024659Y000949
X022660Y000949
X027660Y000949
X016660Y000949
X007659Y000949
T106
X013660Y002949
X016660Y002949
X015660Y003949
X017660Y003949
X017660Y002949
X014660Y004949
X016660Y015949
X001660Y016949
X019660Y002949
X001660Y011949
X018660Y004949
X001660Y010949
X019660Y003949
X014660Y016949
X020660Y002949
X015660Y002949
X013660Y003949
X015660Y004949
X015660Y016949
X001660Y015949
X012660Y016949
X012660Y015949
X023660Y013949
X011660Y015949
X015660Y015949
X018660Y002949
X020660Y004949
X014660Y003949
X023660Y015949
X019660Y004949
X020660Y003949
X023660Y014949
X018660Y003949
X017660Y004949
X016660Y016949
X011660Y016949
X014660Y002949
X001660Y014949
X014660Y015949
X016660Y004949
X013660Y004949
X016660Y003949
T107
X004640Y006949
X001660Y006949
T00
M30
